<!--version="1.0" encoding="utf-8"--><!-- Uploaded to: SVG Repo, www.svgrepo.com, Generator: SVG Repo Mixer Tools --><svg width="800" height="800" viewBox="0 0 24 24" fill="none" xmlns="http://www.w3.org/2000/svg"><path d="M11 18a1 1 0 1 0 2 0h-2zm1-5h1a1 1 0 0 0-.293-.707L12 13zM8.5 9.5l-.659-.753a1 1 0 0 0-.047 1.46L8.5 9.5zm4-3.5.76-.65a1 1 0 0 0-1.418-.103L12.5 6zm6 5a1 1 0 1 0 0-2v2zM8 17a3 3 0 0 1-3 3v2a5 5 0 0 0 5-5H8zm-3 3a3 3 0 0 1-3-3H0a5 5 0 0 0 5 5v-2zm-3-3a3 3 0 0 1 3-3v-2a5 5 0 0 0-5 5h2zm3-3a3 3 0 0 1 3 3h2a5 5 0 0 0-5-5v2zm8 4v-5h-2v5h2zm-.293-5.707-3.5-3.5-1.414 1.414 3.5 3.5 1.414-1.414zm-3.549-2.04 4-3.5-1.316-1.506-4 3.5 1.316 1.506zm2.583-3.602c.514.6 1.463 1.657 2.613 2.57 1.114.886 2.592 1.78 4.147 1.78V9c-.845 0-1.867-.522-2.903-1.345-1-.795-1.851-1.738-2.338-2.306l-1.52 1.3zM22 17a3 3 0 0 1-3 3v2a5 5 0 0 0 5-5h-2zm-3 3a3 3 0 0 1-3-3h-2a5 5 0 0 0 5 5v-2zm-3-3a3 3 0 0 1 3-3v-2a5 5 0 0 0-5 5h2zm3-3a3 3 0 0 1 3 3h2a5 5 0 0 0-5-5v2zM16 3v2a2 2 0 0 0 2-2h-2zm0 0h-2a2 2 0 0 0 2 2V3zm0 0V1a2 2 0 0 0-2 2h2zm0 0h2a2 2 0 0 0-2-2v2z" fill="#000000"/></svg>