<!--version="1.0" encoding="UTF-8" standalone="no"--><!-- Uploaded to: SVG Repo, www.svgrepo.com, Generator: SVG Repo Mixer Tools --><svg width="800" height="800" viewBox="0 0 48 48" version="1.1" xmlns="http://www.w3.org/2000/svg"><g id="Icons" stroke="none" stroke-width="1" fill="none" fill-rule="evenodd"><g id="Color-" transform="translate(-200.000000, -160.000000)" fill="#4460A0"><path d="M225.638 208H202.65a2.65 2.65 0 0 1-2.65-2.65v-42.7a2.65 2.65 0 0 1 2.65-2.65h42.7a2.65 2.65 0 0 1 2.65 2.65v42.7a2.65 2.65 0 0 1-2.65 2.65h-12.23v-18.588h6.239l.933-7.244h-7.174v-4.625c0-2.098.582-3.527 3.59-3.527l3.835-.002v-6.479c-.663-.088-2.94-.285-5.59-.285-5.53 0-9.317 3.376-9.317 9.575v5.343h-6.255v7.244h6.255V208z" id="Facebook"/></g></g></svg>